<svg width="18" height="18" viewBox="0 0 18 18" fill="none" xmlns="http://www.w3.org/2000/svg">
<rect x="0.5" y="0.5" width="17" height="17" rx="4.5" stroke="#83028C"/>
<path d="M9.51219 6.46C9.32552 6.46 9.16552 6.39667 9.03219 6.27C8.90552 6.13667 8.84219 5.97333 8.84219 5.78C8.84219 5.6 8.90552 5.44667 9.03219 5.32C9.16552 5.18667 9.32552 5.12 9.51219 5.12C9.69219 5.12 9.84885 5.18667 9.98219 5.32C10.1155 5.44667 10.1822 5.6 10.1822 5.78C10.1822 5.96667 10.1155 6.12667 9.98219 6.26C9.84885 6.39333 9.69219 6.46 9.51219 6.46ZM8.94219 12V7.1H10.0322V12H8.94219Z" fill="#83028C"/>
</svg>
