<svg width="18" height="18" viewBox="0 0 18 18" fill="none" xmlns="http://www.w3.org/2000/svg">
<path d="M3 4.5V9C3 9 3 11.25 8.25 11.25C8.69439 11.25 9.10116 11.2339 9.4735 11.2044" stroke="#83028C" stroke-linecap="round" stroke-linejoin="round"/>
<path d="M13.5 4.5V9" stroke="#83028C" stroke-linecap="round" stroke-linejoin="round"/>
<path d="M8.25 2.25C13.5 2.25 13.5 4.5 13.5 4.5C13.5 4.5 13.5 6.75 8.25 6.75C3 6.75 3 4.5 3 4.5C3 4.5 3 2.25 8.25 2.25Z" stroke="#83028C" stroke-linecap="round" stroke-linejoin="round"/>
<path d="M8.25 15.75C3 15.75 3 13.5 3 13.5V9" stroke="#83028C" stroke-linecap="round" stroke-linejoin="round"/>
<path d="M16.9997 13.25C16.5356 12.0727 15.4757 11.25 14.2425 11.25C12.9237 11.25 11.8032 12.1909 11.3975 13.5" stroke="#83028C" stroke-linecap="round" stroke-linejoin="round"/>
<path d="M15.7463 13.2499H16.9998V13.2499C17.138 13.2499 17.2501 13.1379 17.2501 12.9997V11.5833" stroke="#83028C" stroke-linecap="round" stroke-linejoin="round"/>
<path d="M11.5003 15.25C11.9644 16.4273 13.0243 17.25 14.2575 17.25C15.5763 17.25 16.6968 16.3091 17.1025 15" stroke="#83028C" stroke-linecap="round" stroke-linejoin="round"/>
<path d="M12.7537 15.2501H11.5002V15.2501C11.362 15.2501 11.2499 15.3621 11.2499 15.5003V16.9167" stroke="#83028C" stroke-linecap="round" stroke-linejoin="round"/>
</svg>
