<svg width="18" height="18" viewBox="0 0 18 18" fill="none" xmlns="http://www.w3.org/2000/svg">
<path d="M4.5 14.2505C2.67833 12.8822 1.5 10.7037 1.5 8.25C1.5 4.10786 4.85786 0.75 9 0.75C13.1421 0.75 16.5 4.10786 16.5 8.25C16.5 10.7037 15.3217 12.8822 13.5 14.2505" stroke="#83028C" stroke-linecap="round" stroke-linejoin="round"/>
<path d="M4.5 14.2505C2.67833 12.8822 1.5 10.7037 1.5 8.25C1.5 4.10786 4.85786 0.75 9 0.75C13.1421 0.75 16.5 4.10786 16.5 8.25C16.5 10.7037 15.3217 12.8822 13.5 14.2505" stroke="#83028C" stroke-linecap="round" stroke-linejoin="round"/>
<path d="M5.64584 11.25C4.93328 10.4539 4.5 9.40253 4.5 8.25C4.5 5.76472 6.51472 3.75 9 3.75C11.4853 3.75 13.5 5.76472 13.5 8.25C13.5 9.40253 13.0667 10.4539 12.3542 11.25" stroke="#83028C" stroke-linecap="round" stroke-linejoin="round"/>
<path d="M9 9.75C9.82843 9.75 10.5 9.07843 10.5 8.25C10.5 7.42157 9.82843 6.75 9 6.75C8.17157 6.75 7.5 7.42157 7.5 8.25C7.5 9.07843 8.17157 9.75 9 9.75Z" stroke="#83028C" stroke-linecap="round" stroke-linejoin="round"/>
<path d="M7.82598 12.0327L7.8906 11.9896C8.5624 11.5417 9.4376 11.5417 10.1094 11.9896L10.174 12.0327C10.8289 12.4692 11.1668 13.2493 11.0374 14.0256L10.7466 15.7704C10.6043 16.6242 9.86558 17.25 9 17.25C8.13442 17.25 7.3957 16.6242 7.2534 15.7704L6.9626 14.0256C6.83321 13.2493 7.17114 12.4692 7.82598 12.0327Z" stroke="#83028C" stroke-linecap="round" stroke-linejoin="round"/>
</svg>
